<svg xmlns="http://www.w3.org/2000/svg" xmlns:xlink="http://www.w3.org/1999/xlink" width="300" zoomAndPan="magnify" viewBox="0 0 224.87999 225" height="300" preserveAspectRatio="xMidYMid meet" version="1.0"><defs><clipPath id="b6eff56878"><path d="M 36 1 L 210.121094 1 L 210.121094 176 L 36 176 Z M 36 1 " clip-rule="nonzero"/></clipPath><clipPath id="2b3577b2ae"><path d="M 14.476562 23 L 189 23 L 189 224.9375 L 14.476562 224.9375 Z M 14.476562 23 " clip-rule="nonzero"/></clipPath></defs><g clip-path="url(#b6eff56878)"><path fill="#82181a" d="M 186.8125 41.335938 L 175.324219 41.335938 L 186.191406 30.472656 L 197.675781 30.472656 Z M 113.96875 92.449219 C 110.40625 89.917969 106.078125 88.417969 101.394531 88.417969 C 89.410156 88.417969 79.664062 98.164062 79.664062 110.144531 C 79.664062 122.128906 89.410156 131.875 101.394531 131.875 C 113.375 131.875 123.125 122.128906 123.125 110.144531 C 123.125 105.464844 121.625 101.132812 119.089844 97.570312 L 129.417969 87.242188 C 134.539062 93.496094 137.609375 101.460938 137.609375 110.144531 C 137.609375 130.121094 121.371094 146.363281 101.394531 146.363281 C 81.417969 146.363281 65.179688 130.121094 65.179688 110.144531 C 65.179688 90.171875 81.417969 73.929688 101.394531 73.929688 C 110.082031 73.929688 118.046875 77 124.296875 82.121094 Z M 115.878906 110.144531 C 115.878906 118.140625 109.386719 124.632812 101.394531 124.632812 C 93.402344 124.632812 86.90625 118.140625 86.90625 110.144531 C 86.90625 102.152344 93.402344 95.660156 101.394531 95.660156 C 104.066406 95.660156 106.558594 96.4375 108.707031 97.710938 L 98.832031 107.585938 L 103.953125 112.707031 L 113.828125 102.832031 C 115.101562 104.984375 115.878906 107.472656 115.878906 110.144531 Z M 159.339844 110.144531 C 159.339844 142.101562 133.351562 168.089844 101.394531 168.089844 C 69.4375 168.089844 43.449219 142.101562 43.449219 110.144531 C 43.449219 78.1875 69.4375 52.199219 101.394531 52.199219 C 116.0625 52.199219 129.445312 57.730469 139.660156 66.757812 L 129.433594 76.984375 C 121.851562 70.578125 112.074219 66.6875 101.394531 66.6875 C 77.429688 66.6875 57.933594 86.179688 57.933594 110.144531 C 57.933594 134.109375 77.429688 153.605469 101.394531 153.605469 C 125.359375 153.605469 144.851562 134.109375 144.851562 110.144531 C 144.851562 99.464844 140.960938 89.691406 134.554688 82.105469 L 144.78125 71.878906 C 153.808594 82.09375 159.339844 95.476562 159.339844 110.144531 Z M 170.203125 24.726562 L 181.070312 13.863281 L 181.070312 25.351562 L 170.203125 36.214844 Z M 206.417969 23.226562 L 193.433594 23.226562 L 205.359375 11.300781 L 200.238281 6.179688 L 188.3125 18.105469 L 188.3125 5.121094 C 188.3125 3.648438 187.433594 2.332031 186.078125 1.78125 C 184.71875 1.203125 183.164062 1.527344 182.128906 2.558594 L 164.023438 20.667969 C 163.34375 21.347656 162.960938 22.265625 162.960938 23.226562 L 162.960938 43.457031 L 144.78125 61.636719 C 133.238281 51.308594 118.058594 44.957031 101.394531 44.957031 C 65.449219 44.957031 36.207031 74.199219 36.207031 110.144531 C 36.207031 146.09375 65.449219 175.335938 101.394531 175.335938 C 137.339844 175.335938 166.582031 146.09375 166.582031 110.144531 C 166.582031 93.480469 160.230469 78.300781 149.902344 66.757812 L 168.082031 48.578125 L 188.3125 48.578125 C 189.273438 48.578125 190.191406 48.199219 190.871094 47.519531 L 208.980469 29.410156 C 210.011719 28.378906 210.324219 26.820312 209.757812 25.464844 C 209.207031 24.105469 207.890625 23.226562 206.417969 23.226562 " fill-opacity="1" fill-rule="nonzero"/></g><g clip-path="url(#2b3577b2ae)"><path fill="#82181a" d="M 29.34375 220.789062 L 35.824219 224.042969 L 38.441406 218.792969 L 55.785156 184.089844 C 69.054688 192.308594 84.6875 197.0625 101.394531 197.0625 C 118.101562 197.0625 133.734375 192.308594 147.003906 184.089844 L 164.347656 218.792969 L 166.964844 224.042969 L 173.445312 220.789062 L 172.4375 218.792969 L 153.042969 180.003906 C 174.417969 164.144531 188.3125 138.738281 188.3125 110.144531 C 188.3125 90.820312 182.101562 72.515625 170.359375 57.238281 L 164.617188 61.652344 C 175.382812 75.65625 181.070312 92.433594 181.070312 110.144531 C 181.070312 154.085938 145.335938 189.820312 101.394531 189.820312 C 57.453125 189.820312 21.71875 154.085938 21.71875 110.144531 C 21.71875 66.207031 57.453125 30.472656 101.394531 30.472656 C 119.613281 30.472656 136.773438 36.457031 150.992188 47.789062 L 155.503906 42.128906 C 139.988281 29.765625 121.269531 23.226562 101.394531 23.226562 C 53.464844 23.226562 14.476562 62.21875 14.476562 110.144531 C 14.476562 138.738281 28.367188 164.144531 49.746094 180.003906 L 30.347656 218.792969 L 29.34375 220.789062 " fill-opacity="1" fill-rule="nonzero"/></g></svg>