<svg xmlns="http://www.w3.org/2000/svg" xmlns:xlink="http://www.w3.org/1999/xlink" width="300" zoomAndPan="magnify" viewBox="0 0 224.87999 225" height="300" preserveAspectRatio="xMidYMid meet" version="1.0"><defs><clipPath id="8cc3dfa643"><path d="M 1.46875 0.0585938 L 223.351562 0.0585938 L 223.351562 224.9375 L 1.46875 224.9375 Z M 1.46875 0.0585938 " clip-rule="nonzero"/></clipPath></defs><g clip-path="url(#8cc3dfa643)"><path fill="#82181a" d="M 81.121094 181.070312 L 136.234375 162.691406 L 81.199219 162.691406 C 78.804688 162.691406 76.863281 160.753906 76.863281 158.359375 C 76.863281 155.960938 78.804688 154.023438 81.199219 154.023438 L 139.621094 154.023438 C 143.609375 154.023438 146.972656 156.886719 147.632812 160.828125 C 148.292969 164.796875 145.992188 168.597656 142.160156 169.859375 L 83.777344 189.328125 C 82.820312 189.617188 81.992188 189.742188 81.195312 189.742188 C 78.800781 189.742188 76.859375 187.800781 76.859375 185.40625 C 76.863281 183.035156 78.769531 181.109375 81.121094 181.070312 Z M 141.660156 206.40625 C 141.566406 206.507812 131.832031 215.96875 112.871094 215.96875 C 96.671875 215.96875 87.214844 209.085938 84.71875 207.003906 L 142.226562 187.839844 C 144.496094 187.085938 145.726562 184.632812 144.972656 182.359375 C 144.210938 180.085938 141.761719 178.875 139.484375 179.617188 L 81.105469 199.070312 C 78.429688 199.953125 76.378906 202.199219 75.742188 204.914062 C 75.101562 207.632812 75.929688 210.546875 77.894531 212.515625 C 78.386719 213.011719 90.164062 224.636719 112.871094 224.636719 C 135.546875 224.636719 147.324219 213.011719 147.816406 212.515625 C 149.492188 210.820312 149.476562 208.089844 147.792969 206.402344 C 146.101562 204.714844 143.355469 204.722656 141.660156 206.40625 Z M 112.316406 9.890625 C 75.625 9.890625 45.773438 39.726562 45.773438 76.40625 C 45.773438 94.941406 55.417969 109.273438 63.992188 122.03125 C 69.894531 130.765625 74.984375 138.308594 74.984375 144.570312 C 74.984375 146.96875 76.921875 148.90625 79.316406 148.90625 C 81.710938 148.90625 83.652344 146.964844 83.652344 144.570312 C 83.652344 135.652344 77.871094 127.089844 71.121094 117.085938 C 63.296875 105.464844 54.441406 92.292969 54.441406 76.40625 C 54.441406 44.507812 80.40625 18.558594 112.316406 18.558594 C 144.210938 18.558594 170.15625 44.507812 170.15625 76.40625 C 170.15625 92.316406 161.28125 105.496094 153.457031 117.121094 C 146.753906 127.050781 140.960938 135.628906 140.960938 144.570312 C 140.960938 146.96875 142.902344 148.90625 145.296875 148.90625 C 147.691406 148.90625 149.628906 146.964844 149.628906 144.570312 C 149.628906 138.28125 154.738281 130.722656 160.644531 121.964844 C 169.164062 109.3125 178.824219 94.96875 178.824219 76.40625 C 178.824219 39.726562 148.988281 9.890625 112.316406 9.890625 Z M 115.515625 37.925781 C 115.515625 35.527344 113.574219 33.589844 111.179688 33.589844 C 88.183594 33.589844 69.480469 52.296875 69.480469 75.296875 C 69.480469 77.695312 71.421875 79.632812 73.816406 79.632812 C 76.210938 79.632812 78.148438 77.691406 78.148438 75.296875 C 78.148438 57.078125 92.96875 42.261719 111.179688 42.261719 C 113.574219 42.257812 115.515625 40.320312 115.515625 37.925781 Z M 37.609375 76.40625 C 37.609375 74.007812 35.667969 72.070312 33.273438 72.070312 L 5.6875 72.070312 C 3.289062 72.070312 1.351562 74.007812 1.351562 76.40625 C 1.351562 78.800781 3.289062 80.738281 5.6875 80.738281 L 33.273438 80.738281 C 35.667969 80.738281 37.609375 78.800781 37.609375 76.40625 Z M 218.917969 72.070312 L 191.324219 72.070312 C 188.925781 72.070312 186.988281 74.007812 186.988281 76.40625 C 186.988281 78.800781 188.925781 80.738281 191.324219 80.738281 L 218.917969 80.738281 C 221.316406 80.738281 223.253906 78.800781 223.253906 76.40625 C 223.253906 74.007812 221.3125 72.070312 218.917969 72.070312 Z M 50.089844 25.007812 C 50.859375 25.566406 51.75 25.835938 52.640625 25.835938 C 53.976562 25.835938 55.296875 25.214844 56.144531 24.046875 C 57.550781 22.109375 57.125 19.398438 55.1875 17.988281 L 32.871094 1.777344 C 30.9375 0.375 28.21875 0.789062 26.816406 2.738281 C 25.410156 4.675781 25.832031 7.386719 27.773438 8.796875 Z M 50.089844 127.824219 L 27.769531 144.039062 C 25.828125 145.445312 25.40625 148.15625 26.808594 150.097656 C 27.660156 151.265625 28.976562 151.882812 30.316406 151.882812 C 31.207031 151.882812 32.09375 151.613281 32.863281 151.058594 L 55.183594 134.84375 C 57.125 133.4375 57.546875 130.726562 56.140625 128.785156 C 54.730469 126.835938 52.019531 126.429688 50.089844 127.824219 Z M 171.964844 25.835938 C 172.855469 25.835938 173.746094 25.570312 174.515625 25.007812 L 196.835938 8.800781 C 198.777344 7.390625 199.199219 4.679688 197.792969 2.738281 C 196.386719 0.792969 193.671875 0.378906 191.742188 1.78125 L 169.421875 17.992188 C 167.480469 19.402344 167.058594 22.109375 168.464844 24.050781 C 169.308594 25.214844 170.628906 25.835938 171.964844 25.835938 Z M 174.515625 127.824219 C 172.597656 126.425781 169.875 126.835938 168.464844 128.785156 C 167.058594 130.726562 167.480469 133.4375 169.421875 134.84375 L 191.742188 151.058594 C 192.511719 151.613281 193.398438 151.882812 194.289062 151.882812 C 195.628906 151.882812 196.945312 151.265625 197.792969 150.097656 C 199.203125 148.15625 198.777344 145.445312 196.835938 144.039062 Z M 174.515625 127.824219 " fill-opacity="1" fill-rule="nonzero"/></g></svg>