<svg xmlns="http://www.w3.org/2000/svg" xmlns:xlink="http://www.w3.org/1999/xlink" xmlns:inkscape="http://www.inkscape.org/namespaces/inkscape" version="1.1" width="595.276" height="576.89" viewBox="0 0 595.276 576.89">
<defs>
<clipPath id="clip_0">
<path transform="matrix(1,0,0,-1,0,576.89)" d="M0 576.89H595.276V0H0Z"/>
</clipPath>
<clipPath id="clip_1">
<path transform="matrix(1,0,0,-1,0,576.89)" d="M0 576.89H595.276V0H0Z"/>
</clipPath>
</defs>
<g inkscape:groupmode="layer" inkscape:label="Layer 1">
<g clip-path="url(#clip_0)">
<path transform="matrix(1,0,0,-1,139.3745,252.15512)" d="M0 0C5.517 46.615 32.201 89.165 71.551 114.38 125.488 148.941 198.594 147.861 251.297 111.317 287.941 85.908 312.639 45.257 318.256 .854L305.497 .01C298.807 50.206 265.471 93.888 219.264 114.173 191.088 126.543 156.746 129.266 126.616 123.135 67.442 111.093 20.617 59.615 12.764 0Z" fill="#030404"/>
<path transform="matrix(1,0,0,-1,127.7556,375.2453)" d="M0 0C-2.5 2.327-5.016 7.747-5.402 11.189-8.554 39.25-3.222 73.338-5.178 102.021-2.181 122.926 32.591 122.585 35.371 102.168L35.224 10.562C33.767-5.282 10.06-9.363 0 0" fill="#030404"/>
<path transform="matrix(1,0,0,-1,116.3944,283.64393)" d="M0 0-1.266-72.32C-8.77-68.15-14.897-62.958-17.399-54.416-19.7-46.563-19.711-23.566-16.822-15.931-14.202-9.01-7.215-2.046 0 0" fill="#030404"/>
<path transform="matrix(1,0,0,-1,478.908,355.11863)" d="M0 0 1.264 72.325C8.582 68.054 14.697 62.807 17.413 54.437 19.726 47.305 19.467 25.327 17.266 18.039 14.742 9.678 8.06 3.087 0 0" fill="#030404"/>
<path transform="matrix(1,0,0,-1,455.9834,379.00593)" d="M0 0C-.373-.351-1.743-8.151-2.369-9.969-10.586-33.834-24.759-54.501-46.082-68.368-49.123-70.346-56.96-73.593-58.743-75.279-60.946-77.361-60.877-82.369-65.532-83.806-69.048-84.892-84.567-85.693-88.113-85.015-95.5-83.602-97.078-69.285-89.19-66.105-87.218-65.31-70.328-64.26-67.688-64.591-65.249-64.896-63.083-66.948-62.136-66.789-60.388-66.496-53.234-61.999-51.187-60.71-30.157-47.461-14.963-24.04-9.417 .056-17.067 .712-22.941 6.5-23.888 14.099-22.079 42.613-25.799 75.381-23.027 103.442-21.493 118.971-11.171 122.415 2.921 120.896 11.947 119.923 16.541 112.564 17.719 104.209L16.034 14.175C15.269 8.552 10.304 2.42 4.903 .63 3.544 .18 .18 .17 0 0" fill="#030404"/>
<path transform="matrix(1,0,0,-1,379.2701,454.19)" d="M0 0C0-2.581-2.092-4.674-4.673-4.674-7.255-4.674-9.347-2.581-9.347 0-9.347 2.581-7.255 4.674-4.673 4.674-2.092 4.674 0 2.581 0 0" fill="#fefefe"/>
</g>
<text fill="#2b2f84" xml:space="preserve" transform="matrix(1 0 -0 1 0 576.89)" font-size="87" font-family="Impact"><tspan y="-219.7832" x="170.3838 206.5758 268.9548 317.0658 342.6003 378.7488">EMD-EP</tspan></text>
<g clip-path="url(#clip_1)">
<path transform="matrix(1,0,0,-1,170.1308,395.47804)" stroke-width="10" stroke-linecap="round" stroke-linejoin="round" fill="none" stroke="#dc1f27" d="M0 0 126.391-47.355"/>
<path transform="matrix(1,0,0,-1,297.4309,433.1958)" stroke-width="2" stroke-linecap="butt" stroke-miterlimit="10" stroke-linejoin="miter" fill="none" stroke="#231f20" d="M0 0-120.759 45.885C-120.759 45.885-5.92 38.6-.229 12.561"/>
<path transform="matrix(1,0,0,-1,424.1856,395.47804)" stroke-width="10" stroke-linecap="round" stroke-linejoin="round" fill="none" stroke="#dc1f27" d="M0 0-126.391-47.355 0 0Z"/>
<path transform="matrix(1,0,0,-1,296.4309,433.1958)" stroke-width="2" stroke-linecap="butt" stroke-miterlimit="10" stroke-linejoin="miter" fill="none" stroke="#231f20" d="M0 0 120.759 45.885C120.759 45.885 5.92 38.6 .229 12.561"/>
<path transform="matrix(1,0,0,-1,305.2253,444.76823)" d="M0 0C0-3.503-3.734-6.343-8.34-6.343-12.946-6.343-16.679-3.503-16.679 0-16.679 3.503-12.946 6.343-8.34 6.343-3.734 6.343 0 3.503 0 0" fill="#dc1f27"/>
</g>
</g>
</svg>
